PathFileType  4	(X/Y/Z)
DataRate	CameraRate	NumFrames	NumMarkers	Units	OrigDataRate	OrigDataStartFrame	OrigNumFrames
  200.0 	  200.0 	    4 	     40 	mm 	  200.0 	      451 	    515
Frame#	Time	R.Shoulder			R.Clavicle			R.Bicep			R.Elbow			R.Forearm			R.Wrist			L.Shoulder			L.Clavicle			L.Scapula			L.Bicep			L.Elbow			L.Forearm			L.Wrist			R.ASIS			R.PSIS			S2			L.PSIS			L.ASIS			R.TH1			R.TH2			R.TH3			R.Knee			R.SH1			R.SH2			R.SH3			R.SH4			R.Ankle			R.Heel			R.MT5			L.TH1			L.TH2			L.TH3			L.TH4			L.Knee			L.SH1			L.SH2			L.SH3			L.Ankle			L.Heel			L.MT5			
		X1	Y1	Z1	X2	Y2	Z2	X3	Y3	Z3	X4	Y4	Z4	X5	Y5	Z5	X6	Y6	Z6	X7	Y7	Z7	X8	Y8	Z8	X9	Y9	Z9	X10	Y10	Z10	X11	Y11	Z11	X12	Y12	Z12	X13	Y13	Z13	X14	Y14	Z14	X15	Y15	Z15	X16	Y16	Z16	X17	Y17	Z17	X18	Y18	Z18	X19	Y19	Z19	X20	Y20	Z20	X21	Y21	Z21	X22	Y22	Z22	X23	Y23	Z23	X24	Y24	Z24	X25	Y25	Z25	X26	Y26	Z26	X27	Y27	Z27	X28	Y28	Z28	X29	Y29	Z29	X30	Y30	Z30	X31	Y31	Z31	X32	Y32	Z32	X33	Y33	Z33	X34	Y34	Z34	X35	Y35	Z35	X36	Y36	Z36	X37	Y37	Z37	X38	Y38	Z38	X39	Y39	Z39	X40	Y40	Z40	

451	2.25000	1260.839	1329.079	-10.792	1337.169	1310.104	-151.659	1285.345	1104.089	16.249	1173.288	1033.266	82.051	1269.783	942.804	105.092	1236.552	842.627	166.405	1331.741	1317.505	-379.316	1351.835	1303.488	-205.587	1184.059	1313.378	-305.150	1408.834	1176.431	-381.353	1430.863	1038.687	-473.514	1529.129	1025.548	-415.613	1611.666	945.341	-427.148	1346.633	884.701	-43.359	1115.419	932.503	-139.813	1112.010	931.319	-191.241	1123.402	948.318	-248.453	1358.907	874.967	-306.957	1368.131	689.037	16.995	1230.946	626.272	-14.379	1265.328	561.778	-26.161	1369.274	456.448	-18.777	1453.462	351.843	12.446	1487.700	285.241	4.695	1361.077	315.693	-52.027	1393.024	246.428	-53.520	1547.693	91.494	-19.532	1516.614	30.545	-80.800	1669.925	96.014	29.394	1277.721	610.435	-340.609	1270.206	533.517	-313.933	1129.260	628.410	-346.969	1114.233	554.434	-327.615	1142.101	464.866	-331.527	1158.104	362.325	-332.073	1052.497	394.599	-331.507	1028.909	319.310	-330.385	1042.796	77.896	-311.996	953.905	44.761	-282.064	1140.917	22.000	-319.467
452	2.25500	1267.485	1327.242	-9.842	1343.823	1308.383	-150.722	1291.601	1102.171	17.011	1179.367	1031.631	82.911	1275.725	941.088	106.221	1242.172	840.996	167.596	1338.407	1315.873	-378.206	1358.431	1301.798	-204.646	1190.604	1311.901	-304.204	1416.291	1175.681	-380.232	1439.892	1038.342	-472.425	1538.076	1026.177	-414.097	1621.395	946.776	-425.096	1353.739	882.739	-42.754	1122.123	930.806	-138.479	1118.545	929.873	-189.939	1129.721	946.995	-247.306	1365.003	873.424	-306.765	1375.098	687.228	16.978	1237.927	624.434	-13.974	1272.238	559.935	-25.854	1376.318	454.538	-18.802	1463.140	351.286	12.714	1498.480	285.207	5.032	1370.789	313.240	-50.980	1403.960	244.473	-52.387	1561.893	92.053	-18.680	1531.352	30.201	-79.502	1684.660	98.949	29.304	1282.395	609.241	-340.294	1274.459	532.369	-313.580	1134.036	628.015	-346.423	1118.654	554.119	-327.111	1145.995	464.355	-331.149	1161.118	361.572	-331.813	1055.829	394.803	-331.200	1031.565	319.752	-330.190	1043.217	78.245	-311.955	954.153	45.037	-282.071	1141.070	22.084	-319.463
453	2.26000	1274.173	1325.390	-8.851	1350.508	1306.654	-149.746	1297.929	1100.248	17.783	1185.536	1029.964	83.790	1281.754	939.326	107.341	1247.876	839.321	168.767	1345.086	1314.215	-377.057	1365.056	1300.097	-203.667	1197.161	1310.406	-303.210	1423.720	1174.861	-379.043	1448.825	1037.960	-471.296	1546.911	1026.696	-412.534	1630.962	948.065	-423.048	1360.892	880.786	-42.137	1128.872	929.067	-137.134	1125.131	928.380	-188.621	1136.091	945.616	-246.137	1371.167	871.877	-306.548	1382.178	685.505	17.010	1245.053	622.622	-13.538	1279.321	558.133	-25.505	1383.548	452.719	-18.769	1472.634	350.658	12.926	1508.905	285.046	5.270	1380.312	310.995	-50.042	1414.514	242.678	-51.401	1575.231	92.513	-18.041	1545.105	29.919	-78.444	1698.457	101.454	29.041	1287.184	608.020	-339.981	1278.837	531.196	-313.227	1138.929	627.573	-345.882	1123.202	553.758	-326.608	1150.032	463.809	-330.759	1164.260	360.787	-331.545	1059.303	395.019	-330.908	1034.343	320.208	-330.007	1043.678	78.620	-311.936	954.415	45.362	-282.103	1141.258	22.152	-319.461
454	2.26500	1280.901	1323.530	-7.818	1357.225	1304.926	-148.731	1304.328	1098.328	18.572	1191.796	1028.270	84.688	1287.871	937.524	108.452	1253.666	837.606	169.917	1351.781	1312.542	-375.869	1371.712	1298.394	-202.651	1203.732	1308.902	-302.166	1431.117	1173.974	-377.785	1457.656	1037.543	-470.128	1555.629	1027.106	-410.924	1640.365	949.206	-421.007	1368.094	878.854	-41.507	1135.669	927.295	-135.781	1131.772	926.845	-187.286	1142.517	944.185	-244.946	1377.404	870.328	-306.303	1389.380	683.877	17.093	1252.334	620.847	-13.068	1286.585	556.383	-25.111	1390.971	451.003	-18.679	1481.944	349.953	13.080	1518.975	284.747	5.408	1389.634	308.959	-49.216	1424.676	241.034	-50.565	1587.693	92.850	-17.609	1557.855	29.678	-77.623	1711.306	103.487	28.618	1292.091	606.775	-339.668	1283.344	530.002	-312.872	1143.941	627.087	-345.342	1127.879	553.355	-326.103	1154.215	463.231	-330.356	1167.531	359.972	-331.266	1062.920	395.250	-330.629	1037.247	320.680	-329.831	1044.182	79.023	-311.941	954.690	45.747	-282.160	1141.485	22.201	-319.462
